<?xml version="1.0" standalone="no"?><!DOCTYPE svg PUBLIC "-//W3C//DTD SVG 1.1//EN" "http://www.w3.org/Graphics/SVG/1.1/DTD/svg11.dtd"><svg t="1590226416575" class="icon" viewBox="0 0 1024 1024" version="1.1" xmlns="http://www.w3.org/2000/svg" p-id="5571" xmlns:xlink="http://www.w3.org/1999/xlink" width="200" height="200"><defs><style type="text/css"></style></defs><path d="M540.4672 113.7664H223.4368c-29.0816 0-52.736 23.6544-52.736 52.736v747.8272c0 29.0816 23.6544 52.736 52.736 52.736h520.2944c29.0816 0 52.736-23.6544 52.736-52.736V369.7664c0-15.6672-12.6976-28.4672-28.4672-28.4672s-28.4672 12.6976-28.4672 28.4672v540.4672h-512V170.7008h312.9344c15.6672 0 28.4672-12.6976 28.4672-28.4672s-12.8-28.4672-28.4672-28.4672m-56.9344 568.9344H312.832c-15.6672 0-28.4672 12.6976-28.4672 28.4672 0 15.6672 12.6976 28.4672 28.4672 28.4672h170.7008c15.6672 0 28.4672-12.6976 28.4672-28.4672s-12.8-28.4672-28.4672-28.4672m0 113.7664H312.832c-15.6672 0-28.4672 12.6976-28.4672 28.4672 0 15.6672 12.6976 28.4672 28.4672 28.4672h170.7008c15.6672 0 28.4672-12.6976 28.4672-28.4672s-12.8-28.4672-28.4672-28.4672M744.3456 56.9344c-7.2704 0-14.5408 2.7648-20.0704 8.2944L508.7232 280.7808c-3.7888 3.7888-6.4512 8.3968-7.7824 13.5168l-29.3888 109.7728c-5.0176 18.5344 9.3184 35.6352 27.2384 35.6352 2.4576 0 4.9152-0.3072 7.4752-1.024l109.6704-29.3888c5.12-1.3312 9.8304-3.9936 13.5168-7.7824l215.6544-215.552c11.0592-11.1616 11.0592-29.0816 0-40.1408l-80.5888-80.5888c-5.632-5.5296-12.9024-8.2944-20.1728-8.2944m0 68.7104l40.2432 40.2432-190.3616 190.2592-54.8864 14.7456 14.6432-54.9888 190.3616-190.2592" fill="#323233" p-id="5572"></path></svg>